<svg version="1.1" id="Layer_1" xmlns="http://www.w3.org/2000/svg" xmlns:xlink="http://www.w3.org/1999/xlink" x="0px" y="0px"
	 width="100%" viewBox="0 0 1428 2049" enable-background="new 0 0 1428 2049" xml:space="preserve">
<path fill="#34A853" opacity="1.000000" stroke="none" 
	d="
M737.286621,2049.759277 
	C723.979126,2050.000000 710.958191,2050.000000 697.468628,2050.000000 
	C692.522217,2047.932495 687.462036,2047.814575 683.113770,2044.932251 
	C671.951172,2037.533325 664.068420,2027.480591 657.887573,2015.857544 
	C648.692261,1998.565552 643.036133,1979.906738 636.905823,1961.435303 
	C626.583191,1930.332031 616.975403,1898.990601 605.208923,1868.373657 
	C591.344238,1832.296631 575.231567,1797.284058 557.179749,1763.101685 
	C533.348755,1717.976318 504.723846,1675.885742 476.251465,1633.697266 
	C451.411591,1596.890869 425.596161,1560.765259 398.727539,1525.402954 
	C397.506897,1523.796509 396.391632,1522.169312 395.735535,1519.860107 
	C395.866486,1517.290161 396.535522,1515.268066 397.992950,1513.559570 
	C410.728729,1498.631104 423.312012,1483.573975 435.927490,1468.544312 
	C449.504547,1452.368896 463.099640,1436.207886 476.703339,1420.055908 
	C489.772675,1404.538330 502.886841,1389.056763 515.955322,1373.537231 
	C533.200439,1353.057617 550.421143,1332.557251 567.670837,1312.082275 
	C582.779358,1294.148926 597.927795,1276.247437 613.030334,1258.308472 
	C629.952271,1238.208252 646.848633,1218.085449 663.765564,1197.981445 
	C677.150391,1182.074951 690.618469,1166.235229 704.001465,1150.326050 
	C720.915894,1130.218750 737.801758,1110.086304 754.743652,1090.003052 
	C770.186096,1071.697266 785.641541,1053.399780 801.103638,1035.109985 
	C816.026794,1017.457581 830.862366,999.727661 845.726074,982.024048 
	C858.986694,966.229736 872.396301,950.555725 885.565918,934.686340 
	C892.466492,926.371094 900.356201,918.957642 906.994324,910.426697 
	C907.916992,909.240906 909.012085,908.199768 909.351257,906.293457 
	C909.571960,905.515869 909.764587,905.101013 910.193604,904.435547 
	C910.780090,903.663757 911.250977,903.231873 911.866943,902.519287 
	C912.182312,902.120117 912.308167,901.960510 912.621033,901.558289 
	C912.932373,901.150513 913.056763,900.985352 913.563721,900.310669 
	C914.082336,899.628479 914.218323,899.455872 914.571045,899.027954 
	C922.658752,890.351379 929.929077,881.413574 937.521362,872.300781 
	C938.007385,871.668274 938.306335,871.326904 938.834351,870.734985 
	C939.204956,870.306335 939.358521,870.138611 939.758667,869.732361 
	C940.183228,869.348999 940.361084,869.204041 940.830200,868.873230 
	C941.330566,868.593262 941.539856,868.499023 942.045288,868.229614 
	C950.492004,860.368286 956.299438,850.745605 963.600647,842.337158 
	C975.812073,828.273743 987.721130,813.942261 999.681152,799.659912 
	C1014.629089,781.809387 1029.650757,764.020508 1044.611450,746.180786 
	C1057.860229,730.382568 1071.169312,714.631836 1084.498291,698.899536 
	C1096.211426,685.074524 1107.805298,671.147217 1119.509521,657.316223 
	C1131.216919,643.481689 1142.875000,629.604431 1154.589844,615.775818 
	C1167.704590,600.294739 1180.736328,584.742310 1193.800293,569.217773 
	C1207.402832,553.053223 1221.023438,536.903870 1234.614624,520.729919 
	C1247.566772,505.316345 1260.618286,489.986542 1273.545410,474.552429 
	C1287.219604,458.226379 1301.014893,442.002686 1314.704102,425.689392 
	C1324.542725,413.964996 1334.450317,402.298553 1344.266479,390.555237 
	C1345.880127,388.624878 1347.406982,386.621460 1350.559326,386.372498 
	C1353.260254,387.164429 1354.136108,389.194946 1355.128052,391.118500 
	C1376.638306,432.825714 1393.482910,476.354492 1406.298706,521.484070 
	C1414.170410,549.203674 1420.211182,577.309692 1424.859619,605.730042 
	C1426.712891,617.060059 1427.456421,628.495056 1428.002441,639.946899 
	C1428.073120,641.428406 1427.766479,642.954834 1428.752686,644.680420 
	C1429.000000,696.020874 1429.000000,747.041809 1429.000000,798.531372 
	C1426.839600,803.036499 1427.926758,807.498718 1427.666626,811.698975 
	C1424.419189,864.139343 1412.861450,914.946045 1397.916138,965.093750 
	C1388.058838,998.168884 1375.480469,1030.218872 1361.272339,1061.659668 
	C1340.795410,1106.972046 1316.151001,1149.941528 1289.300415,1191.736938 
	C1263.820190,1231.399170 1235.972534,1269.364014 1207.423950,1306.812378 
	C1180.198364,1342.525146 1152.092407,1377.559204 1124.108276,1412.684814 
	C1096.645264,1447.156494 1069.254761,1481.686768 1042.513184,1516.730835 
	C1016.365601,1550.996460 990.764526,1585.651367 966.068298,1620.974609 
	C940.214905,1657.952881 915.183411,1695.485352 892.527222,1734.514282 
	C873.875732,1766.644287 857.322388,1799.858887 842.776184,1834.094116 
	C829.019836,1866.470459 817.488037,1899.625244 806.628235,1933.034668 
	C799.888428,1953.769043 793.731750,1974.693237 785.942383,1995.078491 
	C780.564453,2009.152832 774.107117,2022.674072 764.186584,2034.140747 
	C757.182617,2042.236328 748.562561,2048.062012 737.286621,2049.759277 
z"/>


<path fill="#EA4335" opacity="1.000000" stroke="none" 
	d="
M72.247711,1056.096191 
	C57.629135,1025.903931 45.876415,994.754028 35.940876,962.907715 
	C28.230629,938.194214 21.919338,913.139099 16.869150,887.730652 
	C14.040917,873.501282 11.238455,859.247803 9.254856,844.914612 
	C7.527856,832.435425 5.669487,819.926147 4.891080,807.292908 
	C4.324312,798.094421 2.877249,788.948975 2.968569,779.695374 
	C2.977350,778.805603 2.656237,778.084229 1.415004,777.826050 
	C1.000000,739.645752 1.000000,701.291565 1.000000,662.468628 
	C3.296545,657.629456 2.074295,652.826050 2.316580,648.297729 
	C4.947671,599.122131 15.892197,551.588013 30.128613,504.688049 
	C40.834618,469.418640 54.548573,435.344116 70.742386,402.226440 
	C85.976547,371.071320 103.189148,341.086151 122.700775,312.431549 
	C135.156250,294.139557 148.321381,276.364929 162.610199,259.442719 
	C163.703751,258.147614 164.737320,256.889954 166.730072,256.170929 
	C169.626556,255.900925 171.480057,257.199219 173.321091,258.740326 
	C200.742279,281.693726 228.078354,304.748840 255.488617,327.714600 
	C279.195709,347.577667 302.904602,367.440826 326.623810,387.289429 
	C352.517029,408.957214 378.280243,430.783875 404.150482,452.480377 
	C432.180939,475.988556 460.087250,499.645569 488.291809,522.946960 
	C492.905701,526.758728 497.398163,530.727722 502.003418,534.558899 
	C503.796021,536.050171 505.468323,537.707275 506.273651,540.407104 
	C506.615845,545.576355 502.389496,547.798462 500.215393,551.199158 
	C498.974976,553.139465 496.930054,554.492676 495.411194,556.736389 
	C494.721802,557.562500 494.183075,558.033203 493.405762,558.772644 
	C492.952606,559.161865 492.761444,559.306030 492.262939,559.632324 
	C486.949341,563.532715 483.359436,568.599121 479.759949,573.500244 
	C472.270996,583.697266 463.795105,593.051514 455.737122,602.759460 
	C440.767151,620.794861 425.672180,638.727539 410.546692,656.631775 
	C397.025757,672.636658 383.583038,688.707764 370.042755,704.696594 
	C359.083221,717.638000 348.207520,730.651672 337.302307,743.639709 
	C323.942200,759.551514 310.549225,775.435791 297.226898,791.379333 
	C284.015350,807.190369 270.732727,822.942749 257.464935,838.705688 
	C244.195587,854.470520 230.880020,870.198853 217.621948,885.973694 
	C200.934143,905.829224 184.307785,925.737488 167.589844,945.567017 
	C152.369537,963.620300 137.212280,981.727051 121.976219,999.767334 
	C107.280899,1017.167419 92.597565,1034.578735 77.990646,1052.053589 
	C76.489288,1053.849731 75.228333,1055.854370 72.247711,1056.096191 
z"/>
<path fill="#1A73E8" opacity="1.000000" stroke="none" 
	d="
M505.748779,540.994751 
	C493.405212,529.581665 480.413391,519.443909 467.829651,508.831390 
	C431.438416,478.140808 394.943298,447.573425 358.485840,416.961395 
	C318.076080,383.030731 277.664581,349.102051 237.250519,315.176514 
	C214.304489,295.914520 191.351776,276.660522 168.161011,257.164124 
	C166.790726,254.537949 167.991089,252.659424 169.472565,251.062042 
	C176.034134,243.987152 182.049484,236.425278 188.803314,229.522202 
	C197.182129,220.958298 205.011703,211.872818 213.710129,203.606903 
	C240.026688,178.598938 267.546478,155.065292 297.023804,133.804718 
	C330.464447,109.685562 365.757233,88.695145 402.770477,70.646072 
	C443.115479,50.972313 485.093018,35.550232 528.412537,23.735847 
	C556.694153,16.022667 585.402283,10.453216 614.353516,6.100260 
	C632.778748,3.329937 651.361694,2.224686 669.993835,1.976864 
	C672.463623,1.944015 674.989807,2.470500 677.701538,1.242908 
	C702.020874,1.000000 726.041809,1.000000 750.531372,1.000000 
	C752.549438,2.381049 754.456482,1.989391 756.247009,1.983951 
	C793.508301,1.870742 830.042786,7.796715 866.333313,15.479260 
	C886.342224,19.715084 906.174683,24.737753 925.693176,30.908064 
	C928.060547,31.656418 930.496948,32.295998 932.819946,34.098595 
	C934.400330,36.821655 932.887329,38.519009 931.534424,40.212357 
	C924.891174,48.526958 917.794434,56.460239 910.968567,64.622086 
	C897.421265,80.821030 883.674316,96.851509 870.032104,112.970444 
	C857.787109,127.438599 845.594421,141.950912 833.281677,156.361847 
	C821.614563,170.017014 810.031616,183.744217 798.443115,197.465591 
	C786.532837,211.567993 774.664246,225.706299 762.748718,239.804565 
	C748.578186,256.571106 734.410461,273.341064 720.193665,290.067230 
	C704.359619,308.696075 688.568726,327.362701 672.743469,345.998932 
	C655.520996,366.280640 638.453918,386.697693 621.238464,406.984497 
	C607.141479,423.596558 593.094421,440.254059 578.953430,456.830292 
	C565.354614,472.771027 551.801575,488.755035 538.386841,504.854523 
	C534.026001,510.088013 529.127258,514.866699 524.597229,519.966675 
	C523.380615,521.336304 521.960388,522.549072 521.680908,524.877930 
	C521.341370,526.124268 520.803650,526.866516 519.987549,527.813293 
	C519.329895,528.487366 518.834534,528.859558 518.213501,529.528198 
	C517.903503,529.912170 517.781189,530.067688 517.479858,530.461121 
	C517.059509,531.028931 516.817749,531.358521 516.398682,531.963013 
	C513.278259,535.703979 511.313568,540.286804 505.748779,540.994751 
z"/>


<path fill="#FBBC04" opacity="1.000000" stroke="none" 
	d="
M71.945496,1056.449097 
	C93.386536,1030.427368 114.862602,1004.756042 136.380753,979.120056 
	C162.076447,948.506836 187.794785,917.912659 213.528183,887.331116 
	C239.261887,856.749268 265.045715,826.209534 290.771759,795.621277 
	C315.962128,765.669800 341.093933,735.669067 366.276123,705.710815 
	C391.993958,675.115295 417.745209,644.547913 443.475128,613.962585 
	C458.269623,596.376282 473.052521,578.780212 487.834106,561.183044 
	C488.895996,559.918823 489.699677,558.391968 491.765198,557.917175 
	C493.710938,560.784119 491.854431,562.864990 490.487946,564.825378 
	C466.981720,598.546997 453.562988,636.170593 447.446503,676.553772 
	C445.854950,687.061768 445.430664,697.699097 445.029785,708.355896 
	C443.833649,740.153687 448.799927,770.964600 458.688416,801.049500 
	C469.521515,834.008423 486.295044,863.695129 508.754059,890.147888 
	C545.377563,933.283691 591.034241,962.186768 645.638794,976.999451 
	C664.650696,982.156738 683.963745,984.937500 703.664490,985.941223 
	C753.672119,988.489136 800.395996,977.043762 844.316406,953.629150 
	C861.673035,944.376038 877.705200,933.046265 892.495422,919.976990 
	C896.991516,916.004028 901.304565,911.867493 905.633789,907.731873 
	C907.065308,906.364380 908.382690,904.753235 911.040771,904.918762 
	C912.942810,907.504028 910.541870,908.592163 909.449707,909.892212 
	C872.413147,953.976440 835.325378,998.017822 798.217468,1042.042114 
	C758.100342,1089.636475 717.932739,1137.188232 677.829407,1184.794067 
	C637.826355,1232.280884 597.896667,1279.829224 557.896301,1327.318115 
	C519.609375,1372.772705 481.255676,1418.171265 442.966675,1463.624268 
	C427.630035,1481.830444 412.387604,1500.115967 396.970215,1518.684204 
	C387.608643,1507.221313 378.365204,1495.450317 369.153290,1483.654785 
	C358.720001,1470.295166 348.391022,1456.853149 337.875610,1443.558594 
	C328.165741,1431.282471 318.208160,1419.202393 308.470978,1406.947632 
	C297.509186,1393.151489 286.697998,1379.235962 275.772919,1365.410645 
	C265.335846,1352.203003 254.737946,1339.121460 244.387299,1325.846802 
	C227.875305,1304.670288 211.698105,1283.243164 195.801559,1261.593384 
	C177.604279,1236.810181 160.087524,1211.575684 143.330322,1185.808594 
	C129.526688,1164.582886 116.534752,1142.867920 104.254677,1120.720337 
	C95.265831,1104.508667 86.843208,1088.012939 78.762665,1071.337646 
	C76.434219,1066.532715 74.249664,1061.657959 71.945496,1056.449097 
z"/>
<path fill="#4285F4" opacity="1.000000" stroke="none" 
	d="
M932.842163,36.107887 
	C944.068176,38.377335 954.403931,42.657982 964.847229,46.484928 
	C994.594971,57.385998 1023.461548,70.387688 1051.439819,85.227844 
	C1077.988647,99.309753 1103.512329,115.090347 1128.132812,132.405960 
	C1145.334595,144.503998 1161.811768,157.474457 1178.111816,170.698853 
	C1184.742798,176.078598 1190.827271,182.126495 1197.271729,187.742615 
	C1211.314941,199.980728 1224.208252,213.410156 1237.095703,226.800903 
	C1248.227051,238.366852 1258.523682,250.723190 1268.814575,263.083008 
	C1286.672241,284.530701 1302.818237,307.173157 1317.946167,330.557159 
	C1326.496582,343.773987 1334.620972,357.274750 1342.087036,371.160950 
	C1344.776733,376.163422 1347.732178,381.020264 1350.075439,386.606628 
	C1311.746216,432.535645 1273.333740,478.084106 1234.956909,523.662659 
	C1178.995728,590.125366 1123.068604,656.616821 1067.111084,723.082458 
	C1026.363770,771.481506 985.591919,819.859802 944.814758,868.233521 
	C944.185669,868.979858 943.347351,869.549866 942.258789,870.101929 
	C939.949402,867.326111 941.824524,865.268066 943.117676,863.224670 
	C955.639221,843.439392 965.928955,822.576599 973.222839,800.308289 
	C980.032837,779.517395 984.160706,758.219849 985.977966,736.363037 
	C988.976562,700.297363 983.992737,665.284912 972.926636,631.089783 
	C962.827515,599.882568 946.979126,571.642029 926.375244,546.146973 
	C901.745422,515.670166 871.836609,491.666504 836.704834,474.265228 
	C809.332520,460.707306 780.549255,451.840057 750.181641,447.952026 
	C738.938049,446.512482 727.601624,445.460693 716.404053,445.586456 
	C697.490051,445.798950 678.600220,447.516571 659.975159,451.591858 
	C616.383850,461.129883 577.435364,480.144348 542.760071,508.078247 
	C536.932861,512.772522 531.595154,518.046387 525.840515,522.835632 
	C524.312561,524.107239 523.016296,525.741760 520.351746,525.392029 
	C519.858276,523.474060 520.612061,522.088989 521.750854,520.754150 
	C543.000977,495.845581 564.277954,470.959595 585.436340,445.973145 
	C602.727966,425.552917 619.807678,404.953186 637.097168,384.531128 
	C656.535461,361.570862 676.160645,338.768768 695.599487,315.808960 
	C714.821716,293.104889 733.856934,270.242432 753.076599,247.536163 
	C774.232117,222.542908 795.560181,197.695755 816.710510,172.698151 
	C839.575623,145.673828 862.295471,118.526657 885.129944,91.476372 
	C900.139099,73.696075 915.235046,55.989056 930.312073,38.266205 
	C930.951538,37.514538 931.792786,36.934525 932.842163,36.107887 
z"/>

<path fill="#FBBC04" opacity="1.000000" stroke="none" 
	d="
M911.817078,905.384521 
	C912.095947,904.416809 912.728882,903.777344 913.679932,903.023254 
	C914.581665,904.620300 913.311523,905.124329 911.817078,905.384521 
z"/>
<path fill="#4285F4" opacity="1.000000" stroke="none" 
	d="
M940.154846,872.936157 
	C939.984680,872.409119 940.177490,871.794983 940.669617,871.053955 
	C941.527039,871.734009 941.048645,872.297668 940.154846,872.936157 
z"/>
<path fill="#4285F4" opacity="1.000000" stroke="none" 
	d="
M941.259460,871.045776 
	C941.101501,870.683533 941.283569,870.379089 941.728760,869.996826 
	C941.861145,870.313965 941.730286,870.708801 941.259460,871.045776 
z"/>
<path fill="#FBBC04" opacity="1.000000" stroke="none" 
	d="
M915.286865,902.022583 
	C915.129822,901.675476 915.352173,901.335815 915.835632,900.816650 
	C915.953247,901.101379 915.809753,901.565735 915.286865,902.022583 
z"/>
<path fill="#FBBC04" opacity="1.000000" stroke="none" 
	d="
M914.275635,903.125000 
	C914.097107,902.681885 914.282654,902.373352 914.735962,901.986938 
	C914.882324,902.359192 914.761047,902.809326 914.275635,903.125000 
z"/>
<path fill="#FBBC04" opacity="1.000000" stroke="none" 
	d="
M492.844177,556.113525 
	C492.992981,556.611816 492.814484,557.223450 492.335815,557.953613 
	C491.690582,557.325195 491.999390,556.748840 492.844177,556.113525 
z"/>
<path fill="#4285F4" opacity="1.000000" stroke="none" 
	d="
M517.894775,527.067139 
	C517.686096,527.626587 517.147400,528.253052 516.320190,528.999268 
	C516.182251,528.178894 516.579346,527.429382 517.894775,527.067139 
z"/>
<path fill="#4285F4" opacity="1.000000" stroke="none" 
	d="
M515.881592,529.158752 
	C515.900208,529.302124 515.712585,529.623779 515.266479,530.072876 
	C515.230347,529.912598 515.452820,529.624817 515.881592,529.158752 
z"/>
</svg>