<?xml version="1.0" standalone="no"?>
<!DOCTYPE svg PUBLIC "-//W3C//DTD SVG 20010904//EN"
 "http://www.w3.org/TR/2001/REC-SVG-20010904/DTD/svg10.dtd">
<svg version="1.0" xmlns="http://www.w3.org/2000/svg"
 width="512.000000pt" height="512.000000pt" viewBox="0 0 512.000000 512.000000"
 preserveAspectRatio="xMidYMid meet">

<g transform="translate(0.000000,512.000000) scale(0.100000,-0.100000)"
fill="rgb(247,228,76)" stroke="none">
<path d="M2325 4504 c-486 -85 -891 -417 -1076 -881 -70 -178 -108 -427 -90
-601 35 -335 194 -634 563 -1060 312 -360 514 -708 690 -1192 58 -160 82 -190
153 -190 71 0 95 30 153 190 68 186 121 310 208 481 134 265 272 469 482 711
440 508 599 867 562 1270 -32 345 -168 637 -410 878 -209 210 -469 345 -759
394 -117 20 -364 20 -476 0z m350 -929 c180 -47 313 -183 355 -364 17 -71 8
-191 -20 -263 -45 -122 -154 -230 -279 -280 -46 -18 -76 -22 -166 -22 -90 0
-120 4 -166 22 -175 70 -293 229 -306 413 -23 318 277 572 582 494z"/>
</g>
</svg>
